HIERARCHY
ROOT hip
{
	OFFSET 0.000000 0.000000 0.000000 
	CHANNELS 6 Xposition Yposition Zposition Xrotation Zrotation Yrotation
	JOINT abdomen
	{
		OFFSET 0.000000 3.402643 0.000000 
		CHANNELS 3 Xrotation Zrotation Yrotation
		JOINT chest
		{
			OFFSET 0.000000 8.438565 -0.680529 
			CHANNELS 3 Xrotation Zrotation Yrotation
			JOINT neck
			{
				OFFSET 0.000000 10.207942 -0.272212 
				CHANNELS 3 Xrotation Zrotation Yrotation
				JOINT head
				{
					OFFSET 0.000000 3.130431 0.000000 
					CHANNELS 3 Xrotation Zrotation Yrotation
					End Site
					{
						OFFSET 0.000000 3.130435 0.000000 
					}
				}
			}
			JOINT lCollar
			{
				OFFSET 3.470700 6.669187 -0.816635 
				CHANNELS 3 Yrotation Zrotation Xrotation
				JOINT lShldr
				{
					OFFSET 3.198488 0.000000 0.000000 
					CHANNELS 3 Zrotation Yrotation Xrotation
					JOINT lForeArm
					{
						OFFSET 10.139888 0.000000 0.000000 
						CHANNELS 3 Yrotation Zrotation Xrotation
						JOINT lHand
						{
							OFFSET 8.370511 0.000000 0.000000 
							CHANNELS 3 Zrotation Yrotation Xrotation
							End Site
							{
								OFFSET 4.083176 0.000000 0.000000 
							}
						}
					}
				}
			}
			JOINT rCollar
			{
				OFFSET -3.470700 6.669187 -0.816635 
				CHANNELS 3 Yrotation Zrotation Xrotation
				JOINT rShldr
				{
					OFFSET -3.198488 0.000000 0.000000 
					CHANNELS 3 Zrotation Yrotation Xrotation
					JOINT rForeArm
					{
						OFFSET -10.139888 0.000000 0.000000 
						CHANNELS 3 Yrotation Zrotation Xrotation
						JOINT rHand
						{
							OFFSET -8.370511 0.000000 0.000000 
							CHANNELS 3 Zrotation Yrotation Xrotation
							End Site
							{
								OFFSET -4.083176 0.000000 0.000000 
							}
						}
					}
				}
			}
		}
	}
	JOINT lThigh
	{
		OFFSET 5.308129 -1.633274 1.361059 
		CHANNELS 3 Xrotation Zrotation Yrotation
		JOINT lShin
		{
			OFFSET -2.041588 -20.007561 0.000000 
			CHANNELS 3 Xrotation Zrotation Yrotation
			JOINT lFoot
			{
				OFFSET 0.000000 -19.190928 -1.224953 
				CHANNELS 3 Xrotation Yrotation Zrotation
				End Site
				{
					OFFSET 0.000000 -2.449906 4.627600 
				}
			}
		}
	}
	JOINT rThigh
	{
		OFFSET -5.308129 -1.633274 1.361059 
		CHANNELS 3 Xrotation Zrotation Yrotation
		JOINT rShin
		{
			OFFSET 2.041588 -20.007561 0.000000 
			CHANNELS 3 Xrotation Zrotation Yrotation
			JOINT rFoot
			{
				OFFSET 0.000000 -19.190928 -1.224953 
				CHANNELS 3 Xrotation Yrotation Zrotation
				End Site
				{
					OFFSET 0.000000 -2.449906 4.627600 
				}
			}
		}
	}
}
MOTION
Frames: 14
Frame Time: 0.033333
2.464609 45.472992 2.074773 39.181065 -1.435052 1.504168 0.000000 0.000000 0.000000 7.952015 0.291206 6.289179 -14.710399 -2.207022 -0.166268 -17.780638 1.073886 -1.425897 -29.326643 11.746162 24.991737 -86.931778 -12.525944 -3.200530 -104.653725 22.113474 95.207825 2.216360 -36.949669 -59.851376 8.262672 -2.883715 25.000000 53.692883 7.423979 61.318810 -36.247604 -104.200623 -41.605404 12.010904 11.362109 -80.424477 -50.865128 15.427147 14.963304 43.781528 -0.227582 -1.924309 -5.523999 -14.688356 -23.340208 -44.732986 -20.310970 -3.238158 33.774181 6.532200 3.448341 2.259590 -8.293207 19.969013 
2.342349 45.517548 2.252733 39.996689 -1.571047 2.256617 0.000000 0.000000 0.000000 7.897797 0.242676 6.279364 -15.101250 -2.128897 -0.166264 -17.397730 0.702692 -2.011807 -29.747482 12.541180 24.994394 -86.858208 -13.588128 -3.223476 -105.263199 21.516918 96.981155 2.047104 -36.361740 -59.715771 8.058235 -3.165516 24.993551 53.324142 7.751175 61.077839 -38.657639 -104.455788 -44.911667 11.886580 10.702399 -80.405106 -51.039219 14.918634 14.781650 42.814655 -0.126754 -1.871860 -6.025646 -14.836129 -23.039804 -44.700569 -20.602383 -3.331289 33.502220 6.610635 3.422929 1.668433 -9.051889 18.106707 
2.223516 45.587311 2.478894 41.058926 -1.628713 2.940485 0.000000 0.000000 0.000000 7.511889 0.019416 6.240237 -15.580582 -1.962884 -0.156493 -16.960102 0.360940 -2.656259 -29.763369 14.001886 24.994822 -87.376434 -14.748040 -2.937027 -105.489838 20.774548 98.064140 1.849600 -35.722603 -59.556511 8.106010 -3.803831 24.993389 53.269199 7.907093 61.017822 -40.447750 -105.049744 -46.789410 11.676792 9.685423 -80.367195 -51.213245 14.438979 14.571139 41.635086 -0.246767 -1.823785 -6.064337 -14.916894 -22.537331 -45.151264 -20.964312 -3.424387 33.448807 6.629189 3.432838 1.132085 -9.479347 17.208170 
2.099589 45.692505 2.768652 42.308075 -1.578608 3.770789 0.000000 0.000000 0.000000 6.856076 -0.446623 6.162226 -16.040867 -1.699214 -0.136948 -16.415405 0.146198 -3.583972 -29.541477 16.310251 24.997068 -88.558884 -15.905690 -2.320563 -107.267456 19.516966 102.144150 -0.351130 -37.241581 -57.883362 8.243458 -4.963727 24.992891 53.887745 7.815032 61.383198 -40.528275 -105.482849 -47.480728 12.025035 9.434075 -80.248367 -51.250153 13.867405 14.391647 40.150509 -0.569417 -1.838719 -5.723940 -14.979135 -22.464447 -45.655960 -21.421679 -3.566126 33.303963 6.658811 3.425960 0.633423 -10.099624 17.040382 
1.952015 45.850872 3.138333 43.603317 -1.615303 4.845675 0.000000 0.000000 0.000000 6.033381 -1.029381 6.055637 -16.247204 -1.367185 -0.117387 -15.718825 0.068101 -4.980465 -29.217009 19.444511 24.989267 -90.000000 -16.503906 -1.601563 -109.743317 17.355759 106.162659 -2.482502 -39.554379 -55.987778 8.349046 -6.735331 24.995836 55.229275 7.174934 62.244484 -39.737724 -106.230515 -48.186298 12.186184 7.653339 -80.154106 -51.029251 13.161032 14.234732 38.224514 -0.926528 -1.804648 -5.294213 -15.213975 -23.548367 -45.796627 -21.882616 -3.708299 32.760155 6.737503 3.410362 0.112664 -11.499187 17.732803 
1.755244 46.085941 3.601099 44.856853 -2.058459 6.136556 0.000000 0.000000 0.000000 5.053029 -1.349946 6.017170 -15.955778 -0.917968 -0.078271 -14.838087 0.116364 -6.796881 -28.839319 23.108255 24.994230 -90.945816 -16.270037 -1.133983 -113.211563 13.980248 110.883095 -2.455935 -41.542782 -55.441940 8.422791 -8.967696 24.993006 57.148792 6.175915 63.500240 -36.560265 -107.091698 -46.795620 12.684208 7.078889 -80.022034 -50.522034 12.546118 14.158505 35.797680 -1.170109 -1.755189 -5.082879 -15.578382 -25.701164 -45.187523 -21.949060 -3.769934 31.477346 6.912635 3.304331 -0.053888 -14.141916 16.943184 
1.507088 46.418438 4.204920 46.046131 -3.185518 7.491637 0.000000 0.000000 0.000000 3.878651 -1.174984 6.085104 -14.863236 -0.126953 -0.019553 -13.963743 0.183392 -8.740252 -28.895136 26.348265 24.990952 -90.546913 -15.442677 -1.338815 -117.224831 10.084949 114.839836 -3.426852 -42.920979 -54.200130 8.295925 -10.652556 24.993135 58.367661 4.836479 64.423164 -33.916641 -108.548599 -46.284485 12.715347 4.957293 -79.911072 -49.774624 12.167842 14.234408 33.074585 -1.130321 -1.601677 -5.435675 -15.846599 -27.250336 -43.727398 -21.424227 -3.677980 29.251604 7.039408 3.121889 -0.304567 -16.923027 17.539095 
1.262909 46.742397 4.912744 47.177574 -4.748639 8.780363 0.000000 0.000000 0.000000 2.580997 -0.689264 6.230839 -13.572948 1.064452 0.068529 -13.341743 0.115211 -10.537127 -29.796389 28.625978 24.989990 -89.566200 -14.635298 -1.849364 -122.028297 6.461614 122.755066 -0.781730 -44.964119 -55.576992 7.775236 -11.184880 24.997187 58.500221 3.206059 64.743996 -31.611820 -110.467651 -45.259117 12.311410 1.663566 -79.751068 -49.342632 12.127203 14.319083 31.250366 -1.095481 -1.479627 -5.870994 -15.081896 -27.928562 -42.052460 -20.620737 -3.498502 27.080921 7.087439 2.925257 -0.333759 -18.997154 18.591583 
1.053964 46.962574 5.675359 48.243717 -6.638036 9.939404 0.000000 0.000000 0.000000 1.321748 0.116447 6.445338 -12.609363 2.548816 0.176042 -13.007641 -0.181352 -12.207124 -31.528601 29.981115 24.986446 -88.730797 -14.320131 -2.257861 -125.505753 4.030242 128.230103 -0.350019 -47.681709 -55.431099 6.802887 -10.647976 24.998993 58.017647 1.919765 64.643288 -27.210321 -111.503304 -41.422546 12.746377 1.582302 -79.711044 -49.650017 12.603017 14.383827 31.277967 -1.149231 -1.494847 -6.459220 -14.174919 -28.657770 -40.982525 -19.812481 -3.309552 26.130907 7.391801 2.919012 0.064891 -19.674431 23.021832 
0.902131 47.016136 6.434641 49.093445 -8.642315 10.905359 0.000000 0.000000 0.000000 0.486952 1.154197 6.690844 -12.411672 4.033154 0.284562 -12.868510 -0.730494 -13.721931 -33.874935 29.999605 24.986910 -88.314766 -14.730725 -2.471546 -126.428574 3.260612 128.760666 -2.691662 -48.623856 -53.396908 5.472262 -9.284554 24.994329 57.042446 1.504301 64.109657 -22.017916 -111.193527 -37.357101 13.173182 2.665598 -79.799110 -50.809940 13.623094 14.417672 33.309555 -1.108760 -1.607782 -5.553722 -14.612391 -31.586876 -41.020283 -19.489788 -3.164281 27.582756 8.396851 3.282591 0.897242 -18.878363 28.746378 
0.820134 46.874233 7.135655 49.505589 -10.743839 11.710900 0.000000 0.000000 0.000000 0.439728 2.616931 7.029284 -13.343821 5.263556 0.382837 -12.820883 -1.678880 -15.026379 -36.572208 29.994814 24.991947 -88.485413 -16.224817 -2.359966 -126.540596 2.880422 132.248520 -1.484338 -48.722755 -54.350285 3.952154 -7.516474 24.994598 55.373077 2.691196 62.943020 -15.251643 -109.771774 -30.787680 13.814482 5.756847 -79.943893 -52.704773 15.166168 14.438289 37.311371 -1.158098 -1.831457 -3.761925 -12.450349 -27.950422 -42.486919 -19.969229 -3.254214 31.935472 10.554049 4.156696 1.055547 -17.572191 30.349470 
0.807497 46.542202 7.735517 49.491302 -13.402419 12.212307 0.000000 0.000000 0.000000 1.325659 5.178852 7.609593 -15.658216 5.966628 0.432435 -12.757667 -3.212422 -15.894986 -39.421432 29.995087 24.988480 -89.596657 -19.285593 -1.766362 -124.416168 3.801934 132.653137 -2.682085 -46.796089 -53.673565 2.377381 -5.853490 24.992857 52.379009 6.410856 60.727417 -6.434156 -106.852951 -22.280558 16.039593 9.767316 -79.821861 -55.190598 17.419010 14.510923 41.774750 -1.073887 -2.040769 -0.379289 -9.693792 -22.147152 -45.379253 -21.161547 -3.488537 39.517647 13.661066 5.606236 2.311237 -13.019254 32.559059 
0.862751 45.705967 8.193467 48.756126 -14.295156 11.189709 0.000000 0.000000 0.000000 3.802757 6.838775 7.938391 -17.757294 5.351444 0.382843 -14.064660 -3.369349 -14.283151 -38.520763 29.997717 24.995415 -90.798317 -21.657187 -1.133957 -120.625786 5.392347 130.593491 -1.419532 -45.086788 -55.027573 3.500642 -6.281008 24.993654 49.523869 12.539543 58.288288 8.048312 -103.796715 -6.238648 17.437195 9.691501 -79.861633 -55.042366 19.497511 15.223764 44.107727 -1.093786 -2.164685 -3.315809 -7.239520 -32.135883 -49.015926 -22.427805 -3.726287 48.716789 14.793988 6.795780 4.355916 -6.858652 30.163095 
0.891759 44.742405 8.603647 48.717258 -14.473883 9.997304 0.000000 0.000000 0.000000 6.533451 7.620379 8.051337 -20.557972 4.814373 0.333319 -15.335898 -3.291659 -12.325563 -36.701630 29.999199 24.996159 -91.338188 -24.222500 -0.818503 -118.516899 6.413101 131.834000 3.056320 -43.549812 -58.629284 5.326562 -7.322152 25.000000 45.175980 19.235893 54.899971 34.066059 -101.467010 19.883160 19.023733 8.369890 -79.954895 -56.368973 21.409876 15.543380 48.620331 -0.853290 -2.321493 -5.861300 -4.794045 -40.745564 -54.052074 -23.818228 -3.863118 57.096333 13.603057 7.337135 2.815746 -2.838201 24.122215 
